# xmcd CD database file
#
# Track frame offsets:
#	150
#	7483
#	19569
#	39340
#	56602
#	73805
#	94476
#	113185
#	126048
#	143445
#	154929
#	168731
#	187267
#	206434
#	219892
#	230497
#	263367
#	279527
#
# Disc length: 3970 seconds
#
# Revision: 1
# Processed by: cddbd v1.5.2PL0 Copyright (c) Steve Scherf et al.
# Submitted via: CDex 1.51
#
DISCID=050f8012
DTITLE=Jazzchor Freiburg - Commemorative Album of 2006 Korean Tour
DYEAR=2006
DGENRE=Jazz
TTITLE0=Sing, Sing, Sing
TTITLE1=Let's Dance
TTITLE2=Maiden Voyage
TTITLE3=Soulville
TTITLE4=The Garden
TTITLE5=Cairo
TTITLE6=Mr. PC
TTITLE7=Amezaliwa
TTITLE8=I've Got The World On A String
TTITLE9=If I Feel
TTITLE10=Thulasizwe
TTITLE11=A Capella
TTITLE12=Oh, Lady Be Good
TTITLE13=Lonesome Road
TTITLE14=Unsquare Dance
TTITLE15=Sea Journey
TTITLE16=Tonight
TTITLE17=Goodnight
EXTD=YEAR: 2006
EXTT0=
EXTT1=
EXTT2=
EXTT3=
EXTT4=
EXTT5=
EXTT6=
EXTT7=
EXTT8=
EXTT9=
EXTT10=
EXTT11=
EXTT12=
EXTT13=
EXTT14=
EXTT15=
EXTT16=
EXTT17=
PLAYORDER=
